<mxfile host="Electron" agent="Mozilla/5.0 (X11; Linux x86_64) AppleWebKit/537.36 (KHTML, like Gecko) draw.io/27.0.5 Chrome/134.0.6998.205 Electron/35.3.0 Safari/537.36" version="27.0.5">
  <diagram id="R2lEEEUBdFMjLlhIrx00" name="Page-1">
    <mxGraphModel dx="3792" dy="2971" grid="1" gridSize="10" guides="1" tooltips="1" connect="1" arrows="1" fold="1" page="1" pageScale="1" pageWidth="1169" pageHeight="827" math="0" shadow="0" extFonts="Permanent Marker^https://fonts.googleapis.com/css?family=Permanent+Marker">
      <root>
        <mxCell id="0" />
        <mxCell id="1" parent="0" />
        <mxCell id="_uogvYm9ou4BjCA6ubhB-7" value="Расчеты" style="swimlane;whiteSpace=wrap;html=1;" parent="1" vertex="1">
          <mxGeometry x="580" y="30" width="310" height="360" as="geometry" />
        </mxCell>
        <mxCell id="_uogvYm9ou4BjCA6ubhB-49" style="edgeStyle=orthogonalEdgeStyle;rounded=0;orthogonalLoop=1;jettySize=auto;html=1;exitX=0.5;exitY=1;exitDx=0;exitDy=0;entryX=0.5;entryY=0;entryDx=0;entryDy=0;" parent="_uogvYm9ou4BjCA6ubhB-7" source="_uogvYm9ou4BjCA6ubhB-43" target="_uogvYm9ou4BjCA6ubhB-44" edge="1">
          <mxGeometry relative="1" as="geometry" />
        </mxCell>
        <mxCell id="_uogvYm9ou4BjCA6ubhB-53" style="edgeStyle=orthogonalEdgeStyle;rounded=0;orthogonalLoop=1;jettySize=auto;html=1;exitX=1;exitY=0.5;exitDx=0;exitDy=0;entryX=0;entryY=0.5;entryDx=0;entryDy=0;" parent="_uogvYm9ou4BjCA6ubhB-7" source="_uogvYm9ou4BjCA6ubhB-43" target="_uogvYm9ou4BjCA6ubhB-52" edge="1">
          <mxGeometry relative="1" as="geometry" />
        </mxCell>
        <mxCell id="_uogvYm9ou4BjCA6ubhB-43" value="Менеджер" style="rounded=1;whiteSpace=wrap;html=1;" parent="_uogvYm9ou4BjCA6ubhB-7" vertex="1">
          <mxGeometry x="30" y="30" width="120" height="60" as="geometry" />
        </mxCell>
        <mxCell id="_uogvYm9ou4BjCA6ubhB-50" style="edgeStyle=orthogonalEdgeStyle;rounded=0;orthogonalLoop=1;jettySize=auto;html=1;exitX=0.5;exitY=1;exitDx=0;exitDy=0;entryX=0.5;entryY=0;entryDx=0;entryDy=0;" parent="_uogvYm9ou4BjCA6ubhB-7" source="_uogvYm9ou4BjCA6ubhB-44" target="_uogvYm9ou4BjCA6ubhB-45" edge="1">
          <mxGeometry relative="1" as="geometry" />
        </mxCell>
        <mxCell id="_uogvYm9ou4BjCA6ubhB-57" style="edgeStyle=orthogonalEdgeStyle;rounded=0;orthogonalLoop=1;jettySize=auto;html=1;exitX=0;exitY=0.5;exitDx=0;exitDy=0;entryX=0;entryY=0.5;entryDx=0;entryDy=0;" parent="_uogvYm9ou4BjCA6ubhB-7" source="_uogvYm9ou4BjCA6ubhB-44" target="_uogvYm9ou4BjCA6ubhB-56" edge="1">
          <mxGeometry relative="1" as="geometry" />
        </mxCell>
        <mxCell id="_uogvYm9ou4BjCA6ubhB-44" value="Бонусный счет" style="rounded=1;whiteSpace=wrap;html=1;" parent="_uogvYm9ou4BjCA6ubhB-7" vertex="1">
          <mxGeometry x="30" y="110" width="120" height="60" as="geometry" />
        </mxCell>
        <mxCell id="_uogvYm9ou4BjCA6ubhB-45" value="Транзакции бонусов" style="rounded=1;whiteSpace=wrap;html=1;" parent="_uogvYm9ou4BjCA6ubhB-7" vertex="1">
          <mxGeometry x="30" y="190" width="120" height="60" as="geometry" />
        </mxCell>
        <mxCell id="_uogvYm9ou4BjCA6ubhB-58" style="edgeStyle=orthogonalEdgeStyle;rounded=0;orthogonalLoop=1;jettySize=auto;html=1;exitX=0;exitY=0.5;exitDx=0;exitDy=0;entryX=1;entryY=0.5;entryDx=0;entryDy=0;" parent="_uogvYm9ou4BjCA6ubhB-7" source="_uogvYm9ou4BjCA6ubhB-46" target="_uogvYm9ou4BjCA6ubhB-45" edge="1">
          <mxGeometry relative="1" as="geometry">
            <Array as="points">
              <mxPoint x="170" y="140" />
              <mxPoint x="170" y="220" />
            </Array>
          </mxGeometry>
        </mxCell>
        <mxCell id="_uogvYm9ou4BjCA6ubhB-46" value="Рейтинг задания" style="rounded=1;whiteSpace=wrap;html=1;" parent="_uogvYm9ou4BjCA6ubhB-7" vertex="1">
          <mxGeometry x="180" y="110" width="120" height="60" as="geometry" />
        </mxCell>
        <mxCell id="_uogvYm9ou4BjCA6ubhB-54" style="edgeStyle=orthogonalEdgeStyle;rounded=0;orthogonalLoop=1;jettySize=auto;html=1;exitX=0.5;exitY=1;exitDx=0;exitDy=0;" parent="_uogvYm9ou4BjCA6ubhB-7" source="_uogvYm9ou4BjCA6ubhB-52" target="_uogvYm9ou4BjCA6ubhB-46" edge="1">
          <mxGeometry relative="1" as="geometry" />
        </mxCell>
        <mxCell id="_uogvYm9ou4BjCA6ubhB-52" value="Задание" style="rounded=1;whiteSpace=wrap;html=1;" parent="_uogvYm9ou4BjCA6ubhB-7" vertex="1">
          <mxGeometry x="180" y="30" width="120" height="60" as="geometry" />
        </mxCell>
        <mxCell id="_uogvYm9ou4BjCA6ubhB-56" value="Транзакции выплат" style="rounded=1;whiteSpace=wrap;html=1;" parent="_uogvYm9ou4BjCA6ubhB-7" vertex="1">
          <mxGeometry x="30" y="270" width="120" height="60" as="geometry" />
        </mxCell>
        <mxCell id="_uogvYm9ou4BjCA6ubhB-8" value="Задания" style="swimlane;whiteSpace=wrap;html=1;" parent="1" vertex="1">
          <mxGeometry y="30" width="550" height="260" as="geometry" />
        </mxCell>
        <mxCell id="_uogvYm9ou4BjCA6ubhB-39" value="" style="edgeStyle=orthogonalEdgeStyle;rounded=0;orthogonalLoop=1;jettySize=auto;html=1;" parent="_uogvYm9ou4BjCA6ubhB-8" source="_uogvYm9ou4BjCA6ubhB-13" target="_uogvYm9ou4BjCA6ubhB-15" edge="1">
          <mxGeometry relative="1" as="geometry" />
        </mxCell>
        <mxCell id="_uogvYm9ou4BjCA6ubhB-18" style="edgeStyle=orthogonalEdgeStyle;rounded=0;orthogonalLoop=1;jettySize=auto;html=1;exitX=1;exitY=0.5;exitDx=0;exitDy=0;" parent="_uogvYm9ou4BjCA6ubhB-8" source="_uogvYm9ou4BjCA6ubhB-14" target="_uogvYm9ou4BjCA6ubhB-15" edge="1">
          <mxGeometry relative="1" as="geometry" />
        </mxCell>
        <mxCell id="_uogvYm9ou4BjCA6ubhB-14" value="Менеджер" style="rounded=1;whiteSpace=wrap;html=1;" parent="_uogvYm9ou4BjCA6ubhB-8" vertex="1">
          <mxGeometry x="20" y="50" width="120" height="60" as="geometry" />
        </mxCell>
        <mxCell id="_uogvYm9ou4BjCA6ubhB-24" style="edgeStyle=orthogonalEdgeStyle;rounded=0;orthogonalLoop=1;jettySize=auto;html=1;exitX=0.25;exitY=1;exitDx=0;exitDy=0;entryX=0.5;entryY=0;entryDx=0;entryDy=0;" parent="_uogvYm9ou4BjCA6ubhB-8" source="_uogvYm9ou4BjCA6ubhB-15" target="_uogvYm9ou4BjCA6ubhB-22" edge="1">
          <mxGeometry relative="1" as="geometry" />
        </mxCell>
        <mxCell id="_uogvYm9ou4BjCA6ubhB-25" value="has_one" style="edgeLabel;html=1;align=center;verticalAlign=middle;resizable=0;points=[];" parent="_uogvYm9ou4BjCA6ubhB-24" vertex="1" connectable="0">
          <mxGeometry x="-0.0428" relative="1" as="geometry">
            <mxPoint as="offset" />
          </mxGeometry>
        </mxCell>
        <mxCell id="_uogvYm9ou4BjCA6ubhB-15" value="Задание" style="rounded=1;whiteSpace=wrap;html=1;" parent="_uogvYm9ou4BjCA6ubhB-8" vertex="1">
          <mxGeometry x="220" y="50" width="120" height="60" as="geometry" />
        </mxCell>
        <mxCell id="_uogvYm9ou4BjCA6ubhB-22" value="Количество выполнений задания" style="rounded=1;whiteSpace=wrap;html=1;" parent="_uogvYm9ou4BjCA6ubhB-8" vertex="1">
          <mxGeometry x="90" y="160" width="120" height="60" as="geometry" />
        </mxCell>
        <mxCell id="_uogvYm9ou4BjCA6ubhB-13" value="Кандидат" style="rounded=1;whiteSpace=wrap;html=1;" parent="_uogvYm9ou4BjCA6ubhB-8" vertex="1">
          <mxGeometry x="420" y="50" width="120" height="60" as="geometry" />
        </mxCell>
        <mxCell id="_uogvYm9ou4BjCA6ubhB-21" value="&lt;font&gt;а может и не one, но в требованиях не описано, что происходит, если кандидат провалил задание&lt;/font&gt;" style="rounded=0;whiteSpace=wrap;html=1;fillColor=#F7F763;strokeColor=#d6b656;fontSize=7;" parent="_uogvYm9ou4BjCA6ubhB-8" vertex="1">
          <mxGeometry x="340" y="-10" width="90" height="70" as="geometry" />
        </mxCell>
        <mxCell id="_uogvYm9ou4BjCA6ubhB-6" value="Найм" style="swimlane;whiteSpace=wrap;html=1;" parent="1" vertex="1">
          <mxGeometry y="320" width="550" height="270" as="geometry" />
        </mxCell>
        <mxCell id="_uogvYm9ou4BjCA6ubhB-32" style="edgeStyle=orthogonalEdgeStyle;rounded=0;orthogonalLoop=1;jettySize=auto;html=1;exitX=1;exitY=0.5;exitDx=0;exitDy=0;entryX=0;entryY=0.5;entryDx=0;entryDy=0;" parent="_uogvYm9ou4BjCA6ubhB-6" source="_uogvYm9ou4BjCA6ubhB-10" target="_uogvYm9ou4BjCA6ubhB-11" edge="1">
          <mxGeometry relative="1" as="geometry" />
        </mxCell>
        <mxCell id="_uogvYm9ou4BjCA6ubhB-10" value="Менеджер" style="rounded=1;whiteSpace=wrap;html=1;" parent="_uogvYm9ou4BjCA6ubhB-6" vertex="1">
          <mxGeometry x="20" y="30" width="120" height="60" as="geometry" />
        </mxCell>
        <mxCell id="_uogvYm9ou4BjCA6ubhB-27" style="edgeStyle=orthogonalEdgeStyle;rounded=0;orthogonalLoop=1;jettySize=auto;html=1;exitX=0.75;exitY=1;exitDx=0;exitDy=0;entryX=0;entryY=0.5;entryDx=0;entryDy=0;" parent="_uogvYm9ou4BjCA6ubhB-6" source="_uogvYm9ou4BjCA6ubhB-11" target="_uogvYm9ou4BjCA6ubhB-26" edge="1">
          <mxGeometry relative="1" as="geometry" />
        </mxCell>
        <mxCell id="_uogvYm9ou4BjCA6ubhB-28" style="edgeStyle=orthogonalEdgeStyle;rounded=0;orthogonalLoop=1;jettySize=auto;html=1;exitX=0.5;exitY=1;exitDx=0;exitDy=0;entryX=0;entryY=0.5;entryDx=0;entryDy=0;" parent="_uogvYm9ou4BjCA6ubhB-6" source="_uogvYm9ou4BjCA6ubhB-11" target="_uogvYm9ou4BjCA6ubhB-12" edge="1">
          <mxGeometry relative="1" as="geometry" />
        </mxCell>
        <mxCell id="_uogvYm9ou4BjCA6ubhB-11" value="Задание" style="rounded=1;whiteSpace=wrap;html=1;" parent="_uogvYm9ou4BjCA6ubhB-6" vertex="1">
          <mxGeometry x="210" y="30" width="120" height="60" as="geometry" />
        </mxCell>
        <mxCell id="_uogvYm9ou4BjCA6ubhB-12" value="Рейтинг задания" style="rounded=1;whiteSpace=wrap;html=1;" parent="_uogvYm9ou4BjCA6ubhB-6" vertex="1">
          <mxGeometry x="330" y="190" width="120" height="60" as="geometry" />
        </mxCell>
        <mxCell id="_uogvYm9ou4BjCA6ubhB-26" value="Количество выполнений задания" style="rounded=1;whiteSpace=wrap;html=1;" parent="_uogvYm9ou4BjCA6ubhB-6" vertex="1">
          <mxGeometry x="330" y="120" width="120" height="60" as="geometry" />
        </mxCell>
        <mxCell id="_uogvYm9ou4BjCA6ubhB-9" value="Кандидат" style="rounded=1;whiteSpace=wrap;html=1;" parent="_uogvYm9ou4BjCA6ubhB-6" vertex="1">
          <mxGeometry x="420" y="30" width="120" height="60" as="geometry" />
        </mxCell>
        <mxCell id="_uogvYm9ou4BjCA6ubhB-33" style="edgeStyle=orthogonalEdgeStyle;rounded=0;orthogonalLoop=1;jettySize=auto;html=1;exitX=0;exitY=0.5;exitDx=0;exitDy=0;entryX=1;entryY=0.5;entryDx=0;entryDy=0;" parent="_uogvYm9ou4BjCA6ubhB-6" source="_uogvYm9ou4BjCA6ubhB-9" target="_uogvYm9ou4BjCA6ubhB-11" edge="1">
          <mxGeometry relative="1" as="geometry" />
        </mxCell>
        <mxCell id="_uogvYm9ou4BjCA6ubhB-34" style="edgeStyle=orthogonalEdgeStyle;rounded=0;orthogonalLoop=1;jettySize=auto;html=1;exitX=0.5;exitY=1;exitDx=0;exitDy=0;strokeWidth=2;jumpStyle=arc;" parent="1" source="_uogvYm9ou4BjCA6ubhB-14" target="_uogvYm9ou4BjCA6ubhB-10" edge="1">
          <mxGeometry relative="1" as="geometry" />
        </mxCell>
        <mxCell id="_uogvYm9ou4BjCA6ubhB-40" style="edgeStyle=orthogonalEdgeStyle;rounded=0;orthogonalLoop=1;jettySize=auto;html=1;exitX=0.75;exitY=1;exitDx=0;exitDy=0;entryX=0.75;entryY=0;entryDx=0;entryDy=0;strokeWidth=2;jumpStyle=arc;" parent="1" source="_uogvYm9ou4BjCA6ubhB-15" target="_uogvYm9ou4BjCA6ubhB-11" edge="1">
          <mxGeometry relative="1" as="geometry">
            <Array as="points">
              <mxPoint x="300" y="140" />
            </Array>
          </mxGeometry>
        </mxCell>
        <mxCell id="_uogvYm9ou4BjCA6ubhB-42" style="edgeStyle=orthogonalEdgeStyle;rounded=0;orthogonalLoop=1;jettySize=auto;html=1;entryX=0.5;entryY=1;entryDx=0;entryDy=0;strokeWidth=2;jumpStyle=arc;exitX=0.5;exitY=0;exitDx=0;exitDy=0;" parent="1" source="_uogvYm9ou4BjCA6ubhB-26" target="_uogvYm9ou4BjCA6ubhB-22" edge="1">
          <mxGeometry relative="1" as="geometry">
            <mxPoint x="460" y="440" as="sourcePoint" />
            <Array as="points">
              <mxPoint x="390" y="280" />
              <mxPoint x="150" y="280" />
            </Array>
          </mxGeometry>
        </mxCell>
        <mxCell id="_uogvYm9ou4BjCA6ubhB-41" style="edgeStyle=orthogonalEdgeStyle;rounded=0;orthogonalLoop=1;jettySize=auto;html=1;exitX=0.5;exitY=0;exitDx=0;exitDy=0;entryX=0.5;entryY=1;entryDx=0;entryDy=0;strokeWidth=2;jumpStyle=arc;" parent="1" source="_uogvYm9ou4BjCA6ubhB-9" target="_uogvYm9ou4BjCA6ubhB-13" edge="1">
          <mxGeometry relative="1" as="geometry" />
        </mxCell>
        <mxCell id="_uogvYm9ou4BjCA6ubhB-47" style="edgeStyle=orthogonalEdgeStyle;rounded=0;orthogonalLoop=1;jettySize=auto;html=1;exitX=0.5;exitY=0;exitDx=0;exitDy=0;strokeWidth=2;" parent="1" source="_uogvYm9ou4BjCA6ubhB-14" target="_uogvYm9ou4BjCA6ubhB-43" edge="1">
          <mxGeometry relative="1" as="geometry">
            <Array as="points">
              <mxPoint x="80" y="10" />
              <mxPoint x="670" y="10" />
            </Array>
          </mxGeometry>
        </mxCell>
        <mxCell id="NqS8gp6HaAE2yQ8f_B8a-1" value="" style="rounded=1;whiteSpace=wrap;html=1;align=center;verticalAlign=middle;fontFamily=Helvetica;fontSize=12;dashed=1;dashPattern=8 8;" vertex="1" parent="1">
          <mxGeometry x="2140" y="-270" width="1150" height="100" as="geometry" />
        </mxCell>
        <mxCell id="NqS8gp6HaAE2yQ8f_B8a-2" value="" style="rounded=1;whiteSpace=wrap;html=1;align=center;verticalAlign=middle;fontFamily=Helvetica;fontSize=12;dashed=1;dashPattern=8 8;" vertex="1" parent="1">
          <mxGeometry x="20" y="-540" width="2840" height="150" as="geometry" />
        </mxCell>
        <mxCell id="NqS8gp6HaAE2yQ8f_B8a-3" value="" style="rounded=1;whiteSpace=wrap;html=1;align=center;verticalAlign=middle;fontFamily=Helvetica;fontSize=12;dashed=1;dashPattern=8 8;" vertex="1" parent="1">
          <mxGeometry x="20" y="-330" width="2010" height="180" as="geometry" />
        </mxCell>
        <mxCell id="NqS8gp6HaAE2yQ8f_B8a-4" value="&lt;font style=&quot;color: rgb(77, 77, 77);&quot;&gt;HIRING&lt;/font&gt;" style="rounded=0;whiteSpace=wrap;html=1;fillColor=#ffe6cc;strokeColor=#d79b00;" vertex="1" parent="1">
          <mxGeometry x="3050" y="-570" width="120" height="60" as="geometry" />
        </mxCell>
        <mxCell id="NqS8gp6HaAE2yQ8f_B8a-5" style="edgeStyle=orthogonalEdgeStyle;rounded=1;orthogonalLoop=1;jettySize=auto;html=1;exitX=0.75;exitY=1;exitDx=0;exitDy=0;entryX=0.5;entryY=0;entryDx=0;entryDy=0;jumpStyle=arc;curved=0;" edge="1" parent="1" source="NqS8gp6HaAE2yQ8f_B8a-7" target="NqS8gp6HaAE2yQ8f_B8a-32">
          <mxGeometry relative="1" as="geometry">
            <Array as="points">
              <mxPoint x="730" y="-350" />
              <mxPoint x="2220" y="-350" />
            </Array>
          </mxGeometry>
        </mxCell>
        <mxCell id="NqS8gp6HaAE2yQ8f_B8a-6" style="edgeStyle=orthogonalEdgeStyle;rounded=1;orthogonalLoop=1;jettySize=auto;html=1;exitX=0.5;exitY=0;exitDx=0;exitDy=0;entryX=0;entryY=0.25;entryDx=0;entryDy=0;curved=0;" edge="1" parent="1" source="NqS8gp6HaAE2yQ8f_B8a-7" target="NqS8gp6HaAE2yQ8f_B8a-4">
          <mxGeometry relative="1" as="geometry">
            <Array as="points">
              <mxPoint x="700" y="-580" />
              <mxPoint x="2990" y="-580" />
              <mxPoint x="2990" y="-555" />
            </Array>
          </mxGeometry>
        </mxCell>
        <mxCell id="NqS8gp6HaAE2yQ8f_B8a-7" value="Создано задание" style="rounded=0;whiteSpace=wrap;html=1;fillColor=#f0a30a;strokeColor=#BD7000;fontColor=#ffffff;" vertex="1" parent="1">
          <mxGeometry x="640" y="-485" width="120" height="60" as="geometry" />
        </mxCell>
        <mxCell id="NqS8gp6HaAE2yQ8f_B8a-8" value="Менеджер" style="shape=note;whiteSpace=wrap;html=1;backgroundOutline=1;darkOpacity=0.05;fillColor=#FEE750;strokeColor=none;fontSize=18;fontStyle=0;rotation=0;shadow=1;rounded=0;align=center;verticalAlign=middle;fontFamily=Helvetica;fontColor=#4D4D4D;" vertex="1" parent="1">
          <mxGeometry x="400" y="-525" width="120" height="120" as="geometry" />
        </mxCell>
        <mxCell id="NqS8gp6HaAE2yQ8f_B8a-9" value="Создать задание" style="rounded=0;whiteSpace=wrap;html=1;fillColor=#dae8fc;strokeColor=#6c8ebf;align=center;verticalAlign=middle;fontFamily=Helvetica;fontSize=12;fontColor=#4D4D4D;" vertex="1" parent="1">
          <mxGeometry x="520" y="-485" width="120" height="60" as="geometry" />
        </mxCell>
        <mxCell id="NqS8gp6HaAE2yQ8f_B8a-10" value="Задание отправлено во внешнюю систему" style="rounded=0;whiteSpace=wrap;html=1;fillColor=#f0a30a;strokeColor=#BD7000;fontColor=#ffffff;" vertex="1" parent="1">
          <mxGeometry x="3170" y="-570" width="120" height="60" as="geometry" />
        </mxCell>
        <mxCell id="NqS8gp6HaAE2yQ8f_B8a-11" value="Кандидат" style="shape=note;whiteSpace=wrap;html=1;backgroundOutline=1;darkOpacity=0.05;fillColor=#FEE750;strokeColor=none;fontSize=18;fontStyle=0;rotation=0;shadow=1;rounded=0;align=center;verticalAlign=middle;fontFamily=Helvetica;fontColor=#4D4D4D;" vertex="1" parent="1">
          <mxGeometry x="400" y="-310" width="120" height="120" as="geometry" />
        </mxCell>
        <mxCell id="NqS8gp6HaAE2yQ8f_B8a-12" value="войти в систему" style="rounded=0;whiteSpace=wrap;html=1;fillColor=#dae8fc;strokeColor=#6c8ebf;align=center;verticalAlign=middle;fontFamily=Helvetica;fontSize=12;fontColor=#4D4D4D;" vertex="1" parent="1">
          <mxGeometry x="520" y="-280" width="120" height="60" as="geometry" />
        </mxCell>
        <mxCell id="NqS8gp6HaAE2yQ8f_B8a-13" value="Кандидат вошел в систему" style="rounded=0;whiteSpace=wrap;html=1;fillColor=#f0a30a;strokeColor=#BD7000;fontColor=#ffffff;" vertex="1" parent="1">
          <mxGeometry x="640" y="-280" width="120" height="60" as="geometry" />
        </mxCell>
        <mxCell id="NqS8gp6HaAE2yQ8f_B8a-14" value="Менеджер" style="shape=note;whiteSpace=wrap;html=1;backgroundOutline=1;darkOpacity=0.05;fillColor=#FEE750;strokeColor=none;fontSize=18;fontStyle=0;rotation=0;shadow=1;rounded=0;align=center;verticalAlign=middle;fontFamily=Helvetica;fontColor=#4D4D4D;" vertex="1" parent="1">
          <mxGeometry x="40" y="-525" width="120" height="120" as="geometry" />
        </mxCell>
        <mxCell id="NqS8gp6HaAE2yQ8f_B8a-15" value="войти в систему" style="rounded=0;whiteSpace=wrap;html=1;fillColor=#dae8fc;strokeColor=#6c8ebf;align=center;verticalAlign=middle;fontFamily=Helvetica;fontSize=12;fontColor=#4D4D4D;" vertex="1" parent="1">
          <mxGeometry x="160" y="-485" width="120" height="60" as="geometry" />
        </mxCell>
        <mxCell id="NqS8gp6HaAE2yQ8f_B8a-16" value="Менеджер вошел в систему" style="rounded=0;whiteSpace=wrap;html=1;fillColor=#f0a30a;strokeColor=#BD7000;fontColor=#ffffff;" vertex="1" parent="1">
          <mxGeometry x="280" y="-485" width="120" height="60" as="geometry" />
        </mxCell>
        <mxCell id="NqS8gp6HaAE2yQ8f_B8a-17" value="Кандидат" style="shape=note;whiteSpace=wrap;html=1;backgroundOutline=1;darkOpacity=0.05;fillColor=#FEE750;strokeColor=none;fontSize=18;fontStyle=0;rotation=0;shadow=1;rounded=0;align=center;verticalAlign=middle;fontFamily=Helvetica;fontColor=#4D4D4D;" vertex="1" parent="1">
          <mxGeometry x="40" y="-310" width="120" height="120" as="geometry" />
        </mxCell>
        <mxCell id="NqS8gp6HaAE2yQ8f_B8a-18" value="зарегистрироваться" style="rounded=0;whiteSpace=wrap;html=1;fillColor=#dae8fc;strokeColor=#6c8ebf;align=center;verticalAlign=middle;fontFamily=Helvetica;fontSize=12;fontColor=#4D4D4D;" vertex="1" parent="1">
          <mxGeometry x="160" y="-280" width="120" height="60" as="geometry" />
        </mxCell>
        <mxCell id="NqS8gp6HaAE2yQ8f_B8a-19" value="Появился новый кандидат" style="rounded=0;whiteSpace=wrap;html=1;fillColor=#f0a30a;strokeColor=#BD7000;fontColor=#ffffff;" vertex="1" parent="1">
          <mxGeometry x="280" y="-280" width="120" height="60" as="geometry" />
        </mxCell>
        <mxCell id="NqS8gp6HaAE2yQ8f_B8a-20" value="Кандидат" style="shape=note;whiteSpace=wrap;html=1;backgroundOutline=1;darkOpacity=0.05;fillColor=#FEE750;strokeColor=none;fontSize=18;fontStyle=0;rotation=0;shadow=1;rounded=0;align=center;verticalAlign=middle;fontFamily=Helvetica;fontColor=#4D4D4D;" vertex="1" parent="1">
          <mxGeometry x="1410" y="-310" width="120" height="120" as="geometry" />
        </mxCell>
        <mxCell id="NqS8gp6HaAE2yQ8f_B8a-21" value="выполнить задание" style="rounded=0;whiteSpace=wrap;html=1;fillColor=#dae8fc;strokeColor=#6c8ebf;align=center;verticalAlign=middle;fontFamily=Helvetica;fontSize=12;fontColor=#4D4D4D;" vertex="1" parent="1">
          <mxGeometry x="1530" y="-280" width="120" height="60" as="geometry" />
        </mxCell>
        <mxCell id="NqS8gp6HaAE2yQ8f_B8a-22" style="edgeStyle=orthogonalEdgeStyle;rounded=1;orthogonalLoop=1;jettySize=auto;html=1;exitX=0.7;exitY=1;exitDx=0;exitDy=0;exitPerimeter=0;jumpStyle=arc;curved=0;" edge="1" parent="1" source="NqS8gp6HaAE2yQ8f_B8a-24" target="NqS8gp6HaAE2yQ8f_B8a-32">
          <mxGeometry relative="1" as="geometry">
            <Array as="points">
              <mxPoint x="1734" y="-160" />
              <mxPoint x="2260" y="-160" />
            </Array>
          </mxGeometry>
        </mxCell>
        <mxCell id="NqS8gp6HaAE2yQ8f_B8a-23" style="edgeStyle=orthogonalEdgeStyle;rounded=1;orthogonalLoop=1;jettySize=auto;html=1;exitX=0.5;exitY=1;exitDx=0;exitDy=0;entryX=0.5;entryY=0;entryDx=0;entryDy=0;curved=0;" edge="1" parent="1" source="NqS8gp6HaAE2yQ8f_B8a-24" target="NqS8gp6HaAE2yQ8f_B8a-29">
          <mxGeometry relative="1" as="geometry" />
        </mxCell>
        <mxCell id="NqS8gp6HaAE2yQ8f_B8a-24" value="кандидат выполнил задание" style="rounded=0;whiteSpace=wrap;html=1;fillColor=#f0a30a;strokeColor=#BD7000;fontColor=#ffffff;" vertex="1" parent="1">
          <mxGeometry x="1650" y="-250" width="120" height="60" as="geometry" />
        </mxCell>
        <mxCell id="NqS8gp6HaAE2yQ8f_B8a-25" style="edgeStyle=orthogonalEdgeStyle;rounded=1;orthogonalLoop=1;jettySize=auto;html=1;exitX=0.5;exitY=1;exitDx=0;exitDy=0;entryX=0;entryY=0.5;entryDx=0;entryDy=0;fontFamily=Helvetica;fontSize=12;fontColor=#ffffff;jumpStyle=arc;curved=0;entryPerimeter=0;" edge="1" parent="1" source="NqS8gp6HaAE2yQ8f_B8a-26" target="NqS8gp6HaAE2yQ8f_B8a-20">
          <mxGeometry relative="1" as="geometry">
            <mxPoint x="1290" y="-250" as="targetPoint" />
          </mxGeometry>
        </mxCell>
        <mxCell id="NqS8gp6HaAE2yQ8f_B8a-26" value="Задание для кандидата назначено" style="rounded=0;whiteSpace=wrap;html=1;fillColor=#f0a30a;strokeColor=#BD7000;fontColor=#ffffff;" vertex="1" parent="1">
          <mxGeometry x="1200" y="-485" width="120" height="60" as="geometry" />
        </mxCell>
        <mxCell id="NqS8gp6HaAE2yQ8f_B8a-27" value="Менеджер" style="shape=note;whiteSpace=wrap;html=1;backgroundOutline=1;darkOpacity=0.05;fillColor=#FEE750;strokeColor=none;fontSize=18;fontStyle=0;rotation=0;shadow=1;rounded=0;align=center;verticalAlign=middle;fontFamily=Helvetica;fontColor=#4D4D4D;" vertex="1" parent="1">
          <mxGeometry x="960" y="-525" width="120" height="120" as="geometry" />
        </mxCell>
        <mxCell id="NqS8gp6HaAE2yQ8f_B8a-28" value="Назначить задание для кандидата" style="rounded=0;whiteSpace=wrap;html=1;fillColor=#dae8fc;strokeColor=#6c8ebf;align=center;verticalAlign=middle;fontFamily=Helvetica;fontSize=12;fontColor=#4D4D4D;" vertex="1" parent="1">
          <mxGeometry x="1080" y="-485" width="120" height="60" as="geometry" />
        </mxCell>
        <mxCell id="NqS8gp6HaAE2yQ8f_B8a-29" value="Система для учителей" style="rounded=0;whiteSpace=wrap;html=1;fillColor=#ffe6cc;strokeColor=#d79b00;align=center;verticalAlign=middle;fontFamily=Helvetica;fontSize=12;fontColor=#4D4D4D;" vertex="1" parent="1">
          <mxGeometry x="1650" y="-130" width="120" height="60" as="geometry" />
        </mxCell>
        <mxCell id="NqS8gp6HaAE2yQ8f_B8a-30" value="рейнтинг задания обновлен" style="rounded=0;whiteSpace=wrap;html=1;fillColor=#f0a30a;strokeColor=#BD7000;fontColor=#ffffff;" vertex="1" parent="1">
          <mxGeometry x="1890" y="-280" width="120" height="60" as="geometry" />
        </mxCell>
        <mxCell id="NqS8gp6HaAE2yQ8f_B8a-31" value="обновить рейтинг задания" style="rounded=0;whiteSpace=wrap;html=1;fillColor=#dae8fc;strokeColor=#6c8ebf;align=center;verticalAlign=middle;fontFamily=Helvetica;fontSize=12;fontColor=#4D4D4D;" vertex="1" parent="1">
          <mxGeometry x="1770" y="-280" width="120" height="60" as="geometry" />
        </mxCell>
        <mxCell id="NqS8gp6HaAE2yQ8f_B8a-32" value="перерасчитать бонусный счет" style="rounded=0;whiteSpace=wrap;html=1;fillColor=#dae8fc;strokeColor=#6c8ebf;align=center;verticalAlign=middle;fontFamily=Helvetica;fontSize=12;fontColor=#4D4D4D;" vertex="1" parent="1">
          <mxGeometry x="2160" y="-250" width="120" height="60" as="geometry" />
        </mxCell>
        <mxCell id="NqS8gp6HaAE2yQ8f_B8a-33" value="бонусный счет менеджера обновлен" style="rounded=0;whiteSpace=wrap;html=1;fillColor=#f0a30a;strokeColor=#BD7000;fontColor=#ffffff;" vertex="1" parent="1">
          <mxGeometry x="2280" y="-250" width="120" height="60" as="geometry" />
        </mxCell>
        <mxCell id="NqS8gp6HaAE2yQ8f_B8a-34" value="&lt;font style=&quot;color: rgb(77, 77, 77);&quot;&gt;cron&lt;/font&gt;" style="rounded=0;whiteSpace=wrap;html=1;fillColor=#ffe6cc;strokeColor=#d79b00;align=center;verticalAlign=middle;fontFamily=Helvetica;fontSize=12;fontColor=#ffffff;" vertex="1" parent="1">
          <mxGeometry x="2430" y="-250" width="120" height="60" as="geometry" />
        </mxCell>
        <mxCell id="NqS8gp6HaAE2yQ8f_B8a-35" value="рассчитать месячную выплату менеджеру" style="rounded=0;whiteSpace=wrap;html=1;fillColor=#dae8fc;strokeColor=#6c8ebf;align=center;verticalAlign=middle;fontFamily=Helvetica;fontSize=12;fontColor=#4D4D4D;" vertex="1" parent="1">
          <mxGeometry x="2670" y="-250" width="120" height="60" as="geometry" />
        </mxCell>
        <mxCell id="NqS8gp6HaAE2yQ8f_B8a-36" value="" style="edgeStyle=orthogonalEdgeStyle;rounded=1;orthogonalLoop=1;jettySize=auto;html=1;curved=0;" edge="1" parent="1" source="NqS8gp6HaAE2yQ8f_B8a-37" target="NqS8gp6HaAE2yQ8f_B8a-38">
          <mxGeometry relative="1" as="geometry" />
        </mxCell>
        <mxCell id="NqS8gp6HaAE2yQ8f_B8a-37" value="выплата менеджеру расчитана" style="rounded=0;whiteSpace=wrap;html=1;fillColor=#f0a30a;strokeColor=#BD7000;fontColor=#ffffff;" vertex="1" parent="1">
          <mxGeometry x="2790" y="-250" width="120" height="60" as="geometry" />
        </mxCell>
        <mxCell id="NqS8gp6HaAE2yQ8f_B8a-38" value="&lt;font color=&quot;#4d4d4d&quot;&gt;GolmanSachsLemanBrazzersTransactions&lt;/font&gt;" style="rounded=0;whiteSpace=wrap;html=1;fillColor=#ffe6cc;strokeColor=#d79b00;align=center;verticalAlign=middle;fontFamily=Helvetica;fontSize=12;fontColor=#ffffff;" vertex="1" parent="1">
          <mxGeometry x="2730" y="-130" width="240" height="60" as="geometry" />
        </mxCell>
        <mxCell id="NqS8gp6HaAE2yQ8f_B8a-39" value="бонус выплачен" style="rounded=0;whiteSpace=wrap;html=1;fillColor=#d0cee2;strokeColor=#56517e;align=center;verticalAlign=middle;fontFamily=Helvetica;fontSize=12;fontColor=#ffffff;" vertex="1" parent="1">
          <mxGeometry x="2910" y="-250" width="120" height="60" as="geometry" />
        </mxCell>
        <mxCell id="NqS8gp6HaAE2yQ8f_B8a-40" value="обнулить баланс" style="rounded=0;whiteSpace=wrap;html=1;fillColor=#dae8fc;strokeColor=#6c8ebf;align=center;verticalAlign=middle;fontFamily=Helvetica;fontSize=12;fontColor=#4D4D4D;" vertex="1" parent="1">
          <mxGeometry x="3030" y="-250" width="120" height="60" as="geometry" />
        </mxCell>
        <mxCell id="NqS8gp6HaAE2yQ8f_B8a-41" value="бонусный счет менеджера обнулен" style="rounded=0;whiteSpace=wrap;html=1;fillColor=#f0a30a;strokeColor=#BD7000;fontColor=#ffffff;" vertex="1" parent="1">
          <mxGeometry x="3150" y="-250" width="120" height="60" as="geometry" />
        </mxCell>
        <mxCell id="NqS8gp6HaAE2yQ8f_B8a-42" value="Отредактировано задание" style="rounded=0;whiteSpace=wrap;html=1;fillColor=#f0a30a;strokeColor=#BD7000;fontColor=#ffffff;" vertex="1" parent="1">
          <mxGeometry x="2720" y="-495" width="120" height="60" as="geometry" />
        </mxCell>
        <mxCell id="NqS8gp6HaAE2yQ8f_B8a-43" value="Менеджер" style="shape=note;whiteSpace=wrap;html=1;backgroundOutline=1;darkOpacity=0.05;fillColor=#FEE750;strokeColor=none;fontSize=18;fontStyle=0;rotation=0;shadow=1;rounded=0;align=center;verticalAlign=middle;fontFamily=Helvetica;fontColor=#4D4D4D;" vertex="1" parent="1">
          <mxGeometry x="2480" y="-525" width="120" height="120" as="geometry" />
        </mxCell>
        <mxCell id="NqS8gp6HaAE2yQ8f_B8a-44" value="Отредактировать задание" style="rounded=0;whiteSpace=wrap;html=1;fillColor=#dae8fc;strokeColor=#6c8ebf;align=center;verticalAlign=middle;fontFamily=Helvetica;fontSize=12;fontColor=#4D4D4D;" vertex="1" parent="1">
          <mxGeometry x="2600" y="-495" width="120" height="60" as="geometry" />
        </mxCell>
        <mxCell id="NqS8gp6HaAE2yQ8f_B8a-45" value="задание выполнено больше 10 раз" style="rounded=0;whiteSpace=wrap;html=1;fillColor=#d0cee2;strokeColor=#56517e;align=center;verticalAlign=middle;fontFamily=Helvetica;fontSize=12;fontColor=#ffffff;" vertex="1" parent="1">
          <mxGeometry x="2120" y="-495" width="120" height="60" as="geometry" />
        </mxCell>
        <mxCell id="NqS8gp6HaAE2yQ8f_B8a-46" style="edgeStyle=orthogonalEdgeStyle;rounded=1;orthogonalLoop=1;jettySize=auto;html=1;exitX=0.5;exitY=0;exitDx=0;exitDy=0;jumpStyle=arc;curved=0;" edge="1" parent="1" source="NqS8gp6HaAE2yQ8f_B8a-47" target="NqS8gp6HaAE2yQ8f_B8a-32">
          <mxGeometry relative="1" as="geometry">
            <Array as="points">
              <mxPoint x="1710" y="-320" />
              <mxPoint x="2100" y="-320" />
              <mxPoint x="2100" y="-220" />
            </Array>
          </mxGeometry>
        </mxCell>
        <mxCell id="NqS8gp6HaAE2yQ8f_B8a-47" value="кандинат провалил задание" style="rounded=0;whiteSpace=wrap;html=1;fillColor=#f0a30a;strokeColor=#BD7000;fontColor=#ffffff;" vertex="1" parent="1">
          <mxGeometry x="1650" y="-310" width="120" height="60" as="geometry" />
        </mxCell>
        <mxCell id="NqS8gp6HaAE2yQ8f_B8a-48" value="&lt;i&gt;это событие по идее «возвращает» нас по таймлайну к назначению кандидата, ну или просто даже менеджер необязательно редачит только по достижению полиси, но не знаю, надо ли показывать это как-то...&lt;/i&gt;" style="rounded=0;whiteSpace=wrap;html=1;" vertex="1" parent="1">
          <mxGeometry x="2825" y="-460" width="230" height="120" as="geometry" />
        </mxCell>
        <mxCell id="NqS8gp6HaAE2yQ8f_B8a-49" value="назначить менеджера на редактуру" style="rounded=0;whiteSpace=wrap;html=1;fillColor=#dae8fc;strokeColor=#6c8ebf;align=center;verticalAlign=middle;fontFamily=Helvetica;fontSize=12;fontColor=#4D4D4D;" vertex="1" parent="1">
          <mxGeometry x="2240" y="-495" width="120" height="60" as="geometry" />
        </mxCell>
        <mxCell id="NqS8gp6HaAE2yQ8f_B8a-50" value="менеджер на редактирование назначен" style="rounded=0;whiteSpace=wrap;html=1;fillColor=#f0a30a;strokeColor=#BD7000;fontColor=#ffffff;" vertex="1" parent="1">
          <mxGeometry x="2360" y="-495" width="120" height="60" as="geometry" />
        </mxCell>
        <mxCell id="NqS8gp6HaAE2yQ8f_B8a-51" value="пробил час расплаты" style="rounded=0;whiteSpace=wrap;html=1;fillColor=#f0a30a;strokeColor=#BD7000;fontColor=#ffffff;" vertex="1" parent="1">
          <mxGeometry x="2550" y="-250" width="120" height="60" as="geometry" />
        </mxCell>
        <mxCell id="NqS8gp6HaAE2yQ8f_B8a-54" value="список кандидатов" style="rounded=0;whiteSpace=wrap;html=1;fillColor=#60a917;strokeColor=#2D7600;fontColor=#ffffff;align=center;verticalAlign=middle;fontFamily=Helvetica;fontSize=12;" vertex="1" parent="1">
          <mxGeometry x="840" y="-485" width="120" height="60" as="geometry" />
        </mxCell>
        <mxCell id="NqS8gp6HaAE2yQ8f_B8a-55" style="edgeStyle=orthogonalEdgeStyle;rounded=1;orthogonalLoop=1;jettySize=auto;html=1;exitX=1;exitY=0.5;exitDx=0;exitDy=0;entryX=0;entryY=0.5;entryDx=0;entryDy=0;jumpStyle=arc;curved=0;" edge="1" parent="1" source="NqS8gp6HaAE2yQ8f_B8a-30" target="NqS8gp6HaAE2yQ8f_B8a-45">
          <mxGeometry relative="1" as="geometry" />
        </mxCell>
      </root>
    </mxGraphModel>
  </diagram>
</mxfile>
